<svg xmlns="http://www.w3.org/2000/svg" xmlns:xlink="http://www.w3.org/1999/xlink" version="1.1" x="0px" y="0px" viewBox="0 0 73 91.25" enable-background="new 0 0 73 73" xml:space="preserve"><g><path d="M51.4,42.6V11.8c0-1.1-0.9-2-2-2c-1.1,0-2,0.9-2,2v30.8c-5.1,0.9-9.1,5.5-9.1,10.9c0,6.1,5,11.1,11.1,11.1   s11.1-5,11.1-11.1C60.5,48,56.6,43.5,51.4,42.6z M49.4,60.5c-3.9,0-7.1-3.2-7.1-7.1c0-3.9,3.2-7.1,7.1-7.1c3.9,0,7.1,3.2,7.1,7.1   C56.5,57.3,53.3,60.5,49.4,60.5z"/><path d="M59.1,37V10.1c0-5.3-4.3-9.6-9.6-9.6c-5.3,0-9.6,4.3-9.6,9.6V37c-5.9,3.4-9.4,9.6-9.4,16.4c0,10.5,8.5,19.1,19.1,19.1   S68.5,64,68.5,53.4C68.5,46.6,64.9,40.4,59.1,37z M49.4,68.5c-8.3,0-15.1-6.8-15.1-15.1c0-5.7,3.2-10.9,8.3-13.5   c0.7-0.3,1.1-1,1.1-1.8V10.1c0-3.1,2.5-5.6,5.6-5.6c3.1,0,5.6,2.5,5.6,5.6v28.1c0,0.8,0.4,1.4,1.1,1.8c5.1,2.6,8.3,7.7,8.3,13.5   C64.5,61.7,57.7,68.5,49.4,68.5z"/><path d="M63.5,11.8h7c1.1,0,2-0.9,2-2c0-1.1-0.9-2-2-2h-7c-1.1,0-2,0.9-2,2C61.5,10.9,62.4,11.8,63.5,11.8z"/><path d="M63.5,20.1h3c1.1,0,2-0.9,2-2c0-1.1-0.9-2-2-2h-3c-1.1,0-2,0.9-2,2C61.5,19.2,62.4,20.1,63.5,20.1z"/><path d="M70.5,24.3h-7c-1.1,0-2,0.9-2,2s0.9,2,2,2h7c1.1,0,2-0.9,2-2S71.6,24.3,70.5,24.3z"/><path d="M66.5,32.6h-3c-1.1,0-2,0.9-2,2s0.9,2,2,2h3c1.1,0,2-0.9,2-2S67.6,32.6,66.5,32.6z"/><path d="M18.1,8C12.5,8,8,12.5,8,18.1c0,5.6,4.6,10.2,10.2,10.2s10.2-4.6,10.2-10.2C28.3,12.5,23.7,8,18.1,8z M18.1,24.3   c-3.4,0-6.2-2.8-6.2-6.2c0-3.4,2.8-6.2,6.2-6.2c3.4,0,6.2,2.8,6.2,6.2C24.3,21.5,21.5,24.3,18.1,24.3z"/><path d="M18.1,6.2c1.1,0,2-0.9,2-2V2.5c0-1.1-0.9-2-2-2c-1.1,0-2,0.9-2,2v1.7C16.1,5.3,17,6.2,18.1,6.2z"/><path d="M18.1,30c-1.1,0-2,0.9-2,2v1.7c0,1.1,0.9,2,2,2c1.1,0,2-0.9,2-2V32C20.1,30.9,19.2,30,18.1,30z"/><path d="M30,18.1c0,1.1,0.9,2,2,2h1.7c1.1,0,2-0.9,2-2s-0.9-2-2-2H32C30.9,16.1,30,17,30,18.1z"/><path d="M6.2,18.1c0-1.1-0.9-2-2-2H2.5c-1.1,0-2,0.9-2,2s0.9,2,2,2h1.7C5.3,20.1,6.2,19.2,6.2,18.1z"/><path d="M29.4,9.7l1.2-1.2c0.8-0.8,0.8-2,0-2.8c-0.8-0.8-2-0.8-2.8,0l-1.2,1.2c-0.8,0.8-0.8,2,0,2.8S28.6,10.5,29.4,9.7z"/><path d="M6.9,26.5l-1.2,1.2c-0.8,0.8-0.8,2,0,2.8c0.8,0.8,2,0.8,2.8,0l1.2-1.2c0.8-0.8,0.8-2,0-2.8C8.9,25.8,7.7,25.8,6.9,26.5z"/><path d="M30.6,27.8l-1.2-1.2c-0.8-0.8-2-0.8-2.8,0c-0.8,0.8-0.8,2,0,2.8l1.2,1.2c0.8,0.8,2,0.8,2.8,0   C31.4,29.8,31.4,28.5,30.6,27.8z"/><path d="M6.9,9.7c0.8,0.8,2,0.8,2.8,0c0.8-0.8,0.8-2,0-2.8L8.5,5.7c-0.8-0.8-2-0.8-2.8,0s-0.8,2,0,2.8L6.9,9.7z"/></g><text x="0" y="88" fill="#000000" font-size="5px" font-weight="bold" font-family="'Helvetica Neue', Helvetica, Arial-Unicode, Arial, Sans-serif">Created by Icon Fair</text><text x="0" y="93" fill="#000000" font-size="5px" font-weight="bold" font-family="'Helvetica Neue', Helvetica, Arial-Unicode, Arial, Sans-serif">from the Noun Project</text></svg>